<mxfile host="www.draw.io" modified="2019-12-02T05:39:26.977Z" agent="Mozilla/5.0 (X11; Linux x86_64) AppleWebKit/537.36 (KHTML, like Gecko) Chrome/78.0.3904.70 Safari/537.36" etag="Oo30UysW8o_MjS3oY-26" version="12.3.3" type="github" pages="1">
  <diagram name="Page-1" id="e7e014a7-5840-1c2e-5031-d8a46d1fe8dd">
    <mxGraphModel dx="1408" dy="743" grid="1" gridSize="10" guides="1" tooltips="1" connect="1" arrows="1" fold="1" page="1" pageScale="1" pageWidth="1169" pageHeight="826" background="#ffffff" math="0" shadow="0">
      <root>
        <mxCell id="0"/>
        <mxCell id="1" parent="0"/>
        <mxCell id="uIARA253-Zb_Q3sCHrLH-43" value="" style="ellipse;html=1;shape=endState;fillColor=#000000;strokeColor=#ff0000;" vertex="1" parent="1">
          <mxGeometry x="1020" y="370" width="110" height="110" as="geometry"/>
        </mxCell>
        <mxCell id="uIARA253-Zb_Q3sCHrLH-44" value="" style="ellipse;html=1;shape=startState;fillColor=#000000;strokeColor=#ff0000;" vertex="1" parent="1">
          <mxGeometry x="100" y="190" width="80" height="90" as="geometry"/>
        </mxCell>
        <mxCell id="uIARA253-Zb_Q3sCHrLH-45" value="" style="edgeStyle=orthogonalEdgeStyle;html=1;verticalAlign=bottom;endArrow=open;endSize=8;strokeColor=#ff0000;" edge="1" source="uIARA253-Zb_Q3sCHrLH-44" parent="1">
          <mxGeometry relative="1" as="geometry">
            <mxPoint x="140" y="410" as="targetPoint"/>
          </mxGeometry>
        </mxCell>
        <mxCell id="uIARA253-Zb_Q3sCHrLH-48" value="" style="edgeStyle=orthogonalEdgeStyle;rounded=0;orthogonalLoop=1;jettySize=auto;html=1;" edge="1" parent="1" source="uIARA253-Zb_Q3sCHrLH-46" target="uIARA253-Zb_Q3sCHrLH-47">
          <mxGeometry relative="1" as="geometry"/>
        </mxCell>
        <mxCell id="uIARA253-Zb_Q3sCHrLH-46" value="زدن دکمه پشتیبانی" style="rounded=1;whiteSpace=wrap;html=1;" vertex="1" parent="1">
          <mxGeometry x="80" y="410" width="120" height="60" as="geometry"/>
        </mxCell>
        <mxCell id="uIARA253-Zb_Q3sCHrLH-49" style="edgeStyle=orthogonalEdgeStyle;rounded=0;orthogonalLoop=1;jettySize=auto;html=1;" edge="1" parent="1" source="uIARA253-Zb_Q3sCHrLH-47">
          <mxGeometry relative="1" as="geometry">
            <mxPoint x="560" y="440" as="targetPoint"/>
          </mxGeometry>
        </mxCell>
        <mxCell id="uIARA253-Zb_Q3sCHrLH-47" value="مشاهده تیکت ها" style="rounded=1;whiteSpace=wrap;html=1;" vertex="1" parent="1">
          <mxGeometry x="330" y="410" width="130" height="60" as="geometry"/>
        </mxCell>
        <mxCell id="uIARA253-Zb_Q3sCHrLH-51" style="edgeStyle=orthogonalEdgeStyle;rounded=0;orthogonalLoop=1;jettySize=auto;html=1;" edge="1" parent="1" source="uIARA253-Zb_Q3sCHrLH-50">
          <mxGeometry relative="1" as="geometry">
            <mxPoint x="600" y="300" as="targetPoint"/>
          </mxGeometry>
        </mxCell>
        <mxCell id="uIARA253-Zb_Q3sCHrLH-54" style="edgeStyle=orthogonalEdgeStyle;rounded=0;orthogonalLoop=1;jettySize=auto;html=1;entryX=0.5;entryY=0;entryDx=0;entryDy=0;" edge="1" parent="1" source="uIARA253-Zb_Q3sCHrLH-50" target="uIARA253-Zb_Q3sCHrLH-53">
          <mxGeometry relative="1" as="geometry"/>
        </mxCell>
        <mxCell id="uIARA253-Zb_Q3sCHrLH-50" value="" style="rhombus;whiteSpace=wrap;html=1;" vertex="1" parent="1">
          <mxGeometry x="560" y="400" width="80" height="80" as="geometry"/>
        </mxCell>
        <mxCell id="uIARA253-Zb_Q3sCHrLH-56" value="" style="edgeStyle=orthogonalEdgeStyle;rounded=0;orthogonalLoop=1;jettySize=auto;html=1;" edge="1" parent="1" source="uIARA253-Zb_Q3sCHrLH-52">
          <mxGeometry relative="1" as="geometry">
            <mxPoint x="600" y="375" as="targetPoint"/>
          </mxGeometry>
        </mxCell>
        <mxCell id="uIARA253-Zb_Q3sCHrLH-64" style="edgeStyle=orthogonalEdgeStyle;rounded=0;orthogonalLoop=1;jettySize=auto;html=1;entryX=0;entryY=0.5;entryDx=0;entryDy=0;" edge="1" parent="1" source="uIARA253-Zb_Q3sCHrLH-52" target="uIARA253-Zb_Q3sCHrLH-63">
          <mxGeometry relative="1" as="geometry"/>
        </mxCell>
        <mxCell id="uIARA253-Zb_Q3sCHrLH-52" value="نوشتن متن پاسخ" style="rounded=1;whiteSpace=wrap;html=1;" vertex="1" parent="1">
          <mxGeometry x="540" y="235" width="120" height="60" as="geometry"/>
        </mxCell>
        <mxCell id="uIARA253-Zb_Q3sCHrLH-62" style="edgeStyle=orthogonalEdgeStyle;rounded=0;orthogonalLoop=1;jettySize=auto;html=1;entryX=0.5;entryY=1;entryDx=0;entryDy=0;" edge="1" parent="1" source="uIARA253-Zb_Q3sCHrLH-53" target="uIARA253-Zb_Q3sCHrLH-43">
          <mxGeometry relative="1" as="geometry"/>
        </mxCell>
        <mxCell id="uIARA253-Zb_Q3sCHrLH-53" value="زدن دکمه حذف" style="rounded=1;whiteSpace=wrap;html=1;" vertex="1" parent="1">
          <mxGeometry x="540" y="560" width="120" height="60" as="geometry"/>
        </mxCell>
        <mxCell id="uIARA253-Zb_Q3sCHrLH-58" value="پاسخ به تیکت&lt;br&gt;" style="text;html=1;strokeColor=none;fillColor=none;align=center;verticalAlign=middle;whiteSpace=wrap;rounded=0;" vertex="1" parent="1">
          <mxGeometry x="590" y="330" width="120" height="30" as="geometry"/>
        </mxCell>
        <mxCell id="uIARA253-Zb_Q3sCHrLH-59" value="حذف تیکت" style="text;html=1;strokeColor=none;fillColor=none;align=center;verticalAlign=middle;whiteSpace=wrap;rounded=0;" vertex="1" parent="1">
          <mxGeometry x="620" y="505" width="120" height="30" as="geometry"/>
        </mxCell>
        <mxCell id="uIARA253-Zb_Q3sCHrLH-65" style="edgeStyle=orthogonalEdgeStyle;rounded=0;orthogonalLoop=1;jettySize=auto;html=1;entryX=0.5;entryY=0;entryDx=0;entryDy=0;" edge="1" parent="1" source="uIARA253-Zb_Q3sCHrLH-63" target="uIARA253-Zb_Q3sCHrLH-43">
          <mxGeometry relative="1" as="geometry"/>
        </mxCell>
        <mxCell id="uIARA253-Zb_Q3sCHrLH-63" value="تایید" style="rounded=1;whiteSpace=wrap;html=1;" vertex="1" parent="1">
          <mxGeometry x="760" y="235" width="120" height="60" as="geometry"/>
        </mxCell>
      </root>
    </mxGraphModel>
  </diagram>
</mxfile>
